<?xml version="1.0" encoding="UTF-8" standalone="no"?> <svg id="Layer_1" data-name="Layer 1" xmlns="http://www.w3.org/2000/svg" viewBox="0 0 512 512"><title>Customer Service Female</title><path d="M134.094,233.922V166.946h-9.9a33.506,33.506,0,0,0-33.523,33.488V222.76a33.506,33.506,0,0,0,33.523,33.488h11.992A121.8,121.8,0,0,1,134.094,233.922Z"/><path d="M387.81,166.946h-9.9v66.976a121.147,121.147,0,0,1-2.147,22.326H387.81a33.506,33.506,0,0,0,33.523-33.488V200.434A33.506,33.506,0,0,0,387.81,166.946Z"/><path d="M157.443,335.38h21.349v-7.31a122.417,122.417,0,0,1-36.566-50.487H130.367c-5.935,25.033-19.637,45.641-19.637,45.641a123.866,123.866,0,0,0,19.491,14.938A134.848,134.848,0,0,1,157.443,335.38Z"/><path d="M245.333,454.4l-47.442-47.889a65.953,65.953,0,0,1-19.1-46.417v-3.38H157.444a111.8,111.8,0,0,0-99.976,61.76L36.79,459.785a21.333,21.333,0,0,0,19.077,30.882H245.333Z"/><path d="M354.557,335.38a134.848,134.848,0,0,1,27.221,2.783,123.866,123.866,0,0,0,19.491-14.938s-13.7-20.608-19.637-45.641h-6.568l-20.919,28.4a121.781,121.781,0,0,1-20.937,21.974v7.422Z"/><path d="M454.532,418.473a111.8,111.8,0,0,0-99.976-61.76H333.208v3.373a65.97,65.97,0,0,1-19.1,46.429L266.667,454.4v36.267H456.132a21.333,21.333,0,0,0,19.077-30.882Z"/><path d="M256,355.719a121.2,121.2,0,0,1-55.872-13.6v17.975A44.626,44.626,0,0,0,213.053,391.5L256,434.853,298.947,391.5a44.626,44.626,0,0,0,12.926-31.408V342.008A121.585,121.585,0,0,1,256,355.719Z"/><path d="M256,10.667A128.44,128.44,0,0,0,127.492,139.038v6.576h27.935c.781,0,81.208-.646,119.016-38.411a21.34,21.34,0,0,1,15.078-6.24,21.038,21.038,0,0,1,3.417.276A21.344,21.344,0,0,1,308.6,112.745c.109.214,17.328,32.87,47.974,32.87h27.935v-6.576A128.44,128.44,0,0,0,256,10.667Z"/><path d="M317.042,293.333A21.243,21.243,0,0,1,298.667,304h-32a21.333,21.333,0,0,1,0-42.667h32A21.243,21.243,0,0,1,317.042,272h32a99.993,99.993,0,0,0,7.527-38.077V166.946c-44.7,0-67.048-44.651-67.048-44.651-44.7,44.651-134.1,44.651-134.1,44.651v66.977A100.505,100.505,0,0,0,336.97,293.333Z"/></svg>